<svg width="100" height="100" viewBox="0 0 100 100" fill="none" xmlns="http://www.w3.org/2000/svg">
<g clip-path="url(#clip0)">
<path d="M50 0L93.3013 25V75L50 100L6.69878 75V25L50 0Z" fill="white"/>
<path d="M75.9863 64.6581L72.0088 64.4577L72.1759 28.0524L81 29.1546L75.9863 64.6581ZM78.9277 72.6739C78.9277 73.3864 78.7383 73.9987 78.3595 74.5109C78.0029 75.023 77.5573 75.4349 77.0225 75.7466C76.51 76.0806 75.964 76.3144 75.3847 76.448C74.8053 76.6039 74.3039 76.6818 73.8805 76.6818C73.4126 76.6818 72.8778 76.6039 72.2762 76.448C71.6968 76.3144 71.1509 76.0806 70.6384 75.7466C70.1258 75.4349 69.6913 75.023 69.3348 74.5109C68.9783 73.9987 68.8 73.3864 68.8 72.6739C68.8 71.9168 68.9783 71.2711 69.3348 70.7367C69.6913 70.2024 70.1258 69.7682 70.6384 69.4342C71.1509 69.0779 71.6968 68.8218 72.2762 68.666C72.8778 68.5101 73.4126 68.4322 73.8805 68.4322C74.3039 68.4322 74.8053 68.5101 75.3847 68.666C75.964 68.8218 76.51 69.0779 77.0225 69.4342C77.5573 69.7682 78.0029 70.2024 78.3595 70.7367C78.7383 71.2711 78.9277 71.9168 78.9277 72.6739Z" fill="#7F00FF"/>
<path d="M23.4667 43.6156L31.2 43.1061L31.8933 28.4836L43.2533 26.4965L40.4267 42.3418L47.3067 41.8323L49.44 24L62.9867 25.7832L58.7733 41.0171L68.8 40.151L66.72 48.6086L56.5867 48.7105L54.6133 55.5887L63.8933 55.1811L61.6 64.352L52.2133 63.9444L48.5867 76.6818L43.1467 75.9685L44.64 63.6387L36.6933 63.2311L34.4 76.478L29.92 76.2742L30.4533 62.9254L20 62.365L20.5333 56.8624L30.6667 56.4548L30.9867 48.8124H22.9333L23.4667 43.6156ZM37.9733 56.2511L45.5467 55.9454L46.4 48.7105H39.3067L37.9733 56.2511Z" fill="#7F00FF"/>
</g>
<defs>
<clipPath id="clip0">
<rect width="100" height="100" fill="white"/>
</clipPath>
</defs>
</svg>
