<svg width="110" height="29" viewBox="0 0 110 29" fill="none" xmlns="http://www.w3.org/2000/svg">
<path d="M42.9893 20H40.9385V15.7344H36.9395V20H34.8887V10.0469H36.9395V14.0801H40.9385V10.0469H42.9893V20ZM48.7434 20C48.6522 19.8223 48.5861 19.6012 48.5451 19.3369C48.0666 19.8701 47.4445 20.1367 46.6789 20.1367C45.9543 20.1367 45.3527 19.9271 44.8742 19.5078C44.4003 19.0885 44.1633 18.5599 44.1633 17.9219C44.1633 17.138 44.4527 16.5365 45.0314 16.1172C45.6148 15.6979 46.4556 15.486 47.5539 15.4814H48.4631V15.0576C48.4631 14.7158 48.3742 14.4424 48.1965 14.2373C48.0233 14.0322 47.7476 13.9297 47.3693 13.9297C47.0367 13.9297 46.7746 14.0094 46.5832 14.1689C46.3964 14.3285 46.3029 14.5472 46.3029 14.8252H44.3273C44.3273 14.3968 44.4595 14.0003 44.7238 13.6357C44.9882 13.2712 45.3618 12.9863 45.8449 12.7812C46.328 12.5716 46.8703 12.4668 47.4719 12.4668C48.3833 12.4668 49.1057 12.6969 49.6389 13.1572C50.1766 13.613 50.4455 14.2555 50.4455 15.085V18.291C50.4501 18.9928 50.548 19.5238 50.7395 19.8838V20H48.7434ZM47.1096 18.626C47.4012 18.626 47.6701 18.5622 47.9162 18.4346C48.1623 18.3024 48.3446 18.127 48.4631 17.9082V16.6367H47.7248C46.7359 16.6367 46.2095 16.9785 46.1457 17.6621L46.1389 17.7783C46.1389 18.0244 46.2255 18.2272 46.3986 18.3867C46.5718 18.5462 46.8088 18.626 47.1096 18.626ZM55.7689 17.9561C55.7689 17.7145 55.6482 17.5254 55.4066 17.3887C55.1697 17.2474 54.7868 17.1221 54.2582 17.0127C52.4991 16.6436 51.6195 15.8962 51.6195 14.7705C51.6195 14.1143 51.8907 13.5674 52.433 13.1299C52.9799 12.6878 53.6931 12.4668 54.5727 12.4668C55.5115 12.4668 56.2611 12.6878 56.8217 13.1299C57.3868 13.5719 57.6693 14.1462 57.6693 14.8525H55.6938C55.6938 14.57 55.6026 14.3376 55.4203 14.1553C55.238 13.9684 54.9532 13.875 54.5658 13.875C54.2331 13.875 53.9757 13.9502 53.7934 14.1006C53.6111 14.251 53.5199 14.4424 53.5199 14.6748C53.5199 14.8936 53.6225 15.0713 53.8275 15.208C54.0372 15.3402 54.3881 15.4564 54.8803 15.5566C55.3725 15.6523 55.7872 15.7617 56.1244 15.8848C57.168 16.2676 57.6898 16.9307 57.6898 17.874C57.6898 18.5485 57.4005 19.0954 56.8217 19.5146C56.2429 19.9294 55.4955 20.1367 54.5795 20.1367C53.9597 20.1367 53.4083 20.0273 52.9252 19.8086C52.4467 19.5853 52.0707 19.2822 51.7973 18.8994C51.5238 18.512 51.3871 18.0951 51.3871 17.6484H53.2602C53.2784 17.9993 53.4083 18.2682 53.6498 18.4551C53.8913 18.6419 54.2149 18.7354 54.6205 18.7354C54.9988 18.7354 55.2836 18.6647 55.475 18.5234C55.671 18.3776 55.7689 18.1885 55.7689 17.9561ZM60.6959 13.4102C61.22 12.7812 61.8785 12.4668 62.6715 12.4668C64.2757 12.4668 65.0891 13.3988 65.1119 15.2627V20H63.1363V15.3174C63.1363 14.8936 63.0452 14.5814 62.8629 14.3809C62.6806 14.1758 62.3775 14.0732 61.9537 14.0732C61.3749 14.0732 60.9557 14.2965 60.6959 14.7432V20H58.7203V9.5H60.6959V13.4102ZM68.2547 12.6035L68.3162 13.4307C68.8403 12.7881 69.549 12.4668 70.4422 12.4668C71.3947 12.4668 72.0486 12.8428 72.4041 13.5947C72.9236 12.8428 73.6642 12.4668 74.6258 12.4668C75.4279 12.4668 76.0249 12.7015 76.4168 13.1709C76.8087 13.6357 77.0047 14.3376 77.0047 15.2764V20H75.0223V15.2832C75.0223 14.8639 74.9402 14.5586 74.7762 14.3672C74.6121 14.1712 74.3227 14.0732 73.908 14.0732C73.3156 14.0732 72.9054 14.3558 72.6775 14.9209L72.6844 20H70.7088V15.29C70.7088 14.8617 70.6245 14.5518 70.4559 14.3604C70.2872 14.1689 70.0001 14.0732 69.5945 14.0732C69.034 14.0732 68.6284 14.3057 68.3777 14.7705V20H66.4021V12.6035H68.2547ZM81.7334 20.1367C80.6488 20.1367 79.7646 19.804 79.0811 19.1387C78.402 18.4733 78.0625 17.5869 78.0625 16.4795V16.2881C78.0625 15.5452 78.2061 14.8822 78.4932 14.2988C78.7803 13.7109 79.1859 13.2598 79.71 12.9453C80.2386 12.6263 80.8402 12.4668 81.5146 12.4668C82.5264 12.4668 83.3216 12.7858 83.9004 13.4238C84.4837 14.0618 84.7754 14.9665 84.7754 16.1377V16.9443H80.0654C80.1292 17.4274 80.3206 17.8148 80.6396 18.1064C80.9632 18.3981 81.3711 18.5439 81.8633 18.5439C82.6243 18.5439 83.2191 18.2682 83.6475 17.7168L84.6182 18.8037C84.3219 19.223 83.9209 19.5511 83.415 19.7881C82.9092 20.0205 82.3486 20.1367 81.7334 20.1367ZM81.5078 14.0664C81.1159 14.0664 80.7969 14.1986 80.5508 14.4629C80.3092 14.7272 80.1543 15.1055 80.0859 15.5977H82.834V15.4404C82.8249 15.0029 82.7064 14.6657 82.4785 14.4287C82.2507 14.1872 81.9271 14.0664 81.5078 14.0664ZM85.8059 19.0293C85.8059 18.7148 85.9107 18.4596 86.1203 18.2637C86.3345 18.0677 86.6011 17.9697 86.9201 17.9697C87.2437 17.9697 87.5103 18.0677 87.7199 18.2637C87.9341 18.4596 88.0412 18.7148 88.0412 19.0293C88.0412 19.3392 87.9364 19.5921 87.7268 19.7881C87.5171 19.9795 87.2482 20.0752 86.9201 20.0752C86.5965 20.0752 86.3299 19.9795 86.1203 19.7881C85.9107 19.5921 85.8059 19.3392 85.8059 19.0293ZM89.2699 16.2334C89.2699 15.4997 89.4112 14.8457 89.6937 14.2715C89.9763 13.6973 90.3819 13.2529 90.9105 12.9385C91.4437 12.624 92.0613 12.4668 92.7631 12.4668C93.7611 12.4668 94.5746 12.7721 95.2035 13.3828C95.837 13.9935 96.1902 14.8229 96.2631 15.8711L96.2768 16.377C96.2768 17.5117 95.96 18.4232 95.3266 19.1113C94.6931 19.7949 93.8432 20.1367 92.7768 20.1367C91.7104 20.1367 90.8581 19.7949 90.2201 19.1113C89.5867 18.4277 89.2699 17.498 89.2699 16.3223V16.2334ZM91.2455 16.377C91.2455 17.0788 91.3777 17.6165 91.642 17.9902C91.9063 18.3594 92.2846 18.5439 92.7768 18.5439C93.2553 18.5439 93.629 18.3617 93.8979 17.9971C94.1667 17.6279 94.3012 17.04 94.3012 16.2334C94.3012 15.5452 94.1667 15.012 93.8979 14.6338C93.629 14.2555 93.2507 14.0664 92.7631 14.0664C92.28 14.0664 91.9063 14.2555 91.642 14.6338C91.3777 15.0075 91.2455 15.5885 91.2455 16.377ZM101.45 14.4561C101.181 14.4196 100.944 14.4014 100.739 14.4014C99.9915 14.4014 99.5016 14.6543 99.2691 15.1602V20H97.2936V12.6035H99.1598L99.2145 13.4854C99.6109 12.8063 100.16 12.4668 100.862 12.4668C101.081 12.4668 101.286 12.4964 101.477 12.5557L101.45 14.4561ZM101.783 16.2471C101.783 15.1123 102.052 14.1986 102.59 13.5059C103.132 12.8132 103.861 12.4668 104.777 12.4668C105.588 12.4668 106.22 12.7448 106.671 13.3008L106.753 12.6035H108.544V19.7539C108.544 20.401 108.396 20.9639 108.099 21.4424C107.808 21.9209 107.395 22.2855 106.862 22.5361C106.329 22.7868 105.705 22.9121 104.989 22.9121C104.447 22.9121 103.918 22.8027 103.403 22.584C102.888 22.3698 102.498 22.0918 102.234 21.75L103.109 20.5469C103.601 21.0983 104.198 21.374 104.9 21.374C105.424 21.374 105.832 21.2327 106.124 20.9502C106.415 20.6722 106.561 20.2757 106.561 19.7607V19.3643C106.106 19.8792 105.506 20.1367 104.763 20.1367C103.875 20.1367 103.155 19.7904 102.603 19.0977C102.056 18.4004 101.783 17.4775 101.783 16.3291V16.2471ZM103.759 16.3906C103.759 17.0605 103.893 17.5869 104.162 17.9697C104.431 18.348 104.8 18.5371 105.269 18.5371C105.871 18.5371 106.302 18.3115 106.561 17.8604V14.75C106.297 14.2988 105.871 14.0732 105.283 14.0732C104.809 14.0732 104.435 14.2669 104.162 14.6543C103.893 15.0417 103.759 15.6204 103.759 16.3906Z" fill="#4E4E54"/>
<path d="M2.44263 7.53867L14.5 0.57735L26.5574 7.53867V21.4613L14.5 28.4227L2.44263 21.4613V7.53867Z" fill="white" stroke="#CC57E9"/>
<g clip-path="url(#clip0)">
<path fill-rule="evenodd" clip-rule="evenodd" d="M11.98 7C9.86357 7 7.83383 7.84075 6.33729 9.33729C4.84075 10.8338 4 12.8636 4 14.98C4 17.0964 4.84075 19.1262 6.33729 20.6227C7.83383 22.1193 9.86357 22.96 11.98 22.96L11.98 7Z" fill="#CC57E9"/>
<path fill-rule="evenodd" clip-rule="evenodd" d="M17.02 7C19.1364 7 21.1662 7.84075 22.6627 9.33729C24.1593 10.8338 25 12.8636 25 14.98C25 17.0964 24.1593 19.1262 22.6627 20.6227C21.1662 22.1192 19.1365 22.96 17.02 22.96L17.02 7Z" fill="#CC57E9"/>
<path d="M21.6401 14.9799C21.6401 19.0724 18.3225 22.3899 14.2301 22.3899C10.1376 22.3899 6.82007 19.0724 6.82007 14.9799C6.82007 10.8875 10.1376 7.56995 14.2301 7.56995C18.3225 7.56995 21.6401 10.8875 21.6401 14.9799Z" fill="white"/>
</g>
<defs>
<clipPath id="clip0">
<rect width="21" height="15.96" fill="white" transform="translate(4 7)"/>
</clipPath>
</defs>
</svg>
