<svg width="204" height="42" viewBox="0 0 204 42" fill="none" xmlns="http://www.w3.org/2000/svg">
<path d="M64.3563 35.4326H58.7059V7.40768H64.3563V18.6255H75.6375V7.40768H81.288V35.4326H75.6375V24.2344H64.3563V35.4326Z" fill="#444F60"/>
<path d="M106.075 35.4326H104.776L102.689 32.5598C102.177 33.0158 101.632 33.4458 101.055 33.8496C100.49 34.2405 99.8931 34.5858 99.2631 34.8854C98.6331 35.1721 97.9834 35.4001 97.314 35.5694C96.6577 35.7388 95.9883 35.8235 95.3058 35.8235C93.8227 35.8235 92.4248 35.576 91.1123 35.0809C89.8129 34.5858 88.671 33.8692 87.6866 32.9311C86.7153 31.98 85.9475 30.8204 85.3831 29.4524C84.8187 28.0844 84.5365 26.5275 84.5365 24.7816C84.5365 23.153 84.8187 21.6612 85.3831 20.3062C85.9475 18.9382 86.7153 17.7656 87.6866 16.7884C88.671 15.8113 89.8129 15.0556 91.1123 14.5214C92.4248 13.9742 93.8227 13.7006 95.3058 13.7006C95.9883 13.7006 96.6643 13.7853 97.3337 13.9547C98.0031 14.124 98.6528 14.3585 99.2828 14.6582C99.9128 14.9579 100.51 15.3096 101.074 15.7135C101.652 16.1174 102.19 16.5539 102.689 17.0229L104.776 14.5409H106.075V35.4326ZM100.661 24.7816C100.661 24.052 100.517 23.3484 100.228 22.6709C99.9522 21.9804 99.5715 21.3746 99.0859 20.8534C98.6003 20.3192 98.0293 19.8958 97.373 19.5831C96.7299 19.2574 96.0408 19.0945 95.3058 19.0945C94.5708 19.0945 93.8752 19.2183 93.2189 19.4658C92.5757 19.7134 92.0114 20.0782 91.5257 20.5603C91.0532 21.0423 90.6791 21.6416 90.4035 22.3582C90.1279 23.0618 89.9901 23.8696 89.9901 24.7816C89.9901 25.6936 90.1279 26.5079 90.4035 27.2245C90.6791 27.928 91.0532 28.5209 91.5257 29.0029C92.0114 29.485 92.5757 29.8498 93.2189 30.0973C93.8752 30.3449 94.5708 30.4687 95.3058 30.4687C96.0408 30.4687 96.7299 30.3123 97.373 29.9996C98.0293 29.6739 98.6003 29.2505 99.0859 28.7293C99.5715 28.1951 99.9522 27.5893 100.228 26.9118C100.517 26.2213 100.661 25.5112 100.661 24.7816Z" fill="#444F60"/>
<path d="M121.766 35.4326H109.481V30.1169H121.766C122.134 30.1169 122.449 29.9866 122.711 29.726C122.974 29.4654 123.105 29.1528 123.105 28.788C123.105 28.4101 122.974 28.1626 122.711 28.0453C122.449 27.928 122.134 27.8694 121.766 27.8694H116.175C115.243 27.8694 114.37 27.6935 113.557 27.3418C112.743 26.99 112.034 26.5144 111.43 25.9151C110.826 25.3027 110.347 24.5927 109.993 23.7849C109.652 22.9771 109.481 22.1107 109.481 21.1856C109.481 20.2606 109.652 19.3942 109.993 18.5864C110.347 17.7786 110.826 17.0751 111.43 16.4757C112.034 15.8764 112.743 15.4074 113.557 15.0686C114.37 14.7168 115.243 14.5409 116.175 14.5409H127.063V19.8567H116.175C115.808 19.8567 115.493 19.987 115.23 20.2476C114.968 20.5081 114.836 20.8208 114.836 21.1856C114.836 21.5635 114.968 21.8892 115.23 22.1628C115.493 22.4234 115.808 22.5537 116.175 22.5537H121.766C122.685 22.5537 123.551 22.71 124.365 23.0227C125.179 23.3224 125.888 23.7458 126.492 24.293C127.095 24.8402 127.574 25.4982 127.929 26.2669C128.283 27.0356 128.46 27.8759 128.46 28.788C128.46 29.713 128.283 30.5794 127.929 31.3872C127.574 32.182 127.095 32.8855 126.492 33.4979C125.888 34.0972 125.179 34.5727 124.365 34.9245C123.551 35.2633 122.685 35.4326 121.766 35.4326Z" fill="#444F60"/>
<path d="M136.71 35.4326H131.335V6.17645H136.71V15.4204C137.353 14.9383 138.016 14.5996 138.698 14.4041C139.381 14.1957 140.076 14.0915 140.785 14.0915C142.084 14.0915 143.305 14.339 144.447 14.8341C145.589 15.3162 146.58 15.9871 147.42 16.847C148.273 17.6939 148.942 18.6906 149.428 19.8372C149.927 20.9707 150.176 22.1823 150.176 23.4722V35.4326H144.762V23.4722H144.801C144.801 22.925 144.696 22.4103 144.486 21.9283C144.276 21.4332 143.988 21.0032 143.62 20.6384C143.253 20.2736 142.826 19.987 142.34 19.7785C141.855 19.5701 141.336 19.4658 140.785 19.4658C140.221 19.4658 139.689 19.5701 139.19 19.7785C138.692 19.987 138.258 20.2736 137.891 20.6384C137.523 21.0032 137.235 21.4332 137.025 21.9283C136.815 22.4103 136.71 22.925 136.71 23.4722V35.4326Z" fill="#444F60"/>
<path d="M180.83 35.4326H175.475V22.1433C175.475 21.7785 175.403 21.4332 175.259 21.1075C175.127 20.7817 174.937 20.4951 174.688 20.2476C174.438 20 174.15 19.8111 173.821 19.6808C173.493 19.5375 173.145 19.4658 172.778 19.4658C172.41 19.4658 172.063 19.5375 171.735 19.6808C171.42 19.8111 171.137 20 170.888 20.2476C170.652 20.4951 170.461 20.7817 170.317 21.1075C170.186 21.4332 170.12 21.7785 170.12 22.1433V35.4326H164.745V22.1433C164.745 21.7785 164.673 21.4332 164.529 21.1075C164.397 20.7817 164.207 20.4951 163.958 20.2476C163.708 20 163.42 19.8111 163.091 19.6808C162.763 19.5375 162.416 19.4658 162.048 19.4658C161.681 19.4658 161.333 19.5375 161.005 19.6808C160.69 19.8111 160.407 20 160.158 20.2476C159.922 20.4951 159.731 20.7817 159.587 21.1075C159.456 21.4332 159.39 21.7785 159.39 22.1433V35.4326H154.015V14.5019H155.315L156.772 16.1044C157.52 15.479 158.34 14.997 159.233 14.6582C160.138 14.3064 161.077 14.1305 162.048 14.1305C163.032 14.1305 163.991 14.3129 164.922 14.6778C165.868 15.0426 166.694 15.6745 167.403 16.5734C167.731 16.1305 168.105 15.7526 168.525 15.4399C168.945 15.1272 169.385 14.8732 169.844 14.6778C170.317 14.4823 170.803 14.3455 171.301 14.2673C171.8 14.1761 172.292 14.1305 172.778 14.1305C173.894 14.1305 174.937 14.339 175.908 14.7559C176.893 15.1728 177.746 15.7461 178.468 16.4757C179.203 17.1923 179.78 18.0392 180.2 19.0163C180.62 19.9935 180.83 21.0358 180.83 22.1433V35.4326Z" fill="#444F60"/>
<path d="M193.155 30.3123C193.365 30.3775 193.575 30.4231 193.785 30.4491C193.995 30.4622 194.205 30.4687 194.415 30.4687C194.94 30.4687 195.445 30.397 195.931 30.2537C196.417 30.1104 196.869 29.9084 197.29 29.6479C197.723 29.3742 198.103 29.0485 198.431 28.6707C198.773 28.2798 199.048 27.8499 199.258 27.3808L203.196 31.309C202.697 32.0126 202.12 32.6445 201.463 33.2047C200.82 33.765 200.118 34.2405 199.357 34.6314C198.609 35.0222 197.815 35.3154 196.974 35.5108C196.148 35.7193 195.294 35.8235 194.415 35.8235C192.932 35.8235 191.534 35.5499 190.222 35.0027C188.922 34.4555 187.78 33.6933 186.796 32.7161C185.825 31.739 185.057 30.5794 184.492 29.2374C183.928 27.8824 183.646 26.3972 183.646 24.7816C183.646 23.1269 183.928 21.6156 184.492 20.2476C185.057 18.8795 185.825 17.7135 186.796 16.7493C187.78 15.7852 188.922 15.036 190.222 14.5019C191.534 13.9677 192.932 13.7006 194.415 13.7006C195.294 13.7006 196.154 13.8048 196.994 14.0133C197.834 14.2217 198.628 14.5214 199.376 14.9123C200.138 15.3031 200.846 15.7852 201.503 16.3585C202.159 16.9187 202.737 17.5506 203.235 18.2542L193.155 30.3123ZM195.911 19.3095C195.662 19.2183 195.413 19.1597 195.163 19.1336C194.927 19.1075 194.678 19.0945 194.415 19.0945C193.68 19.0945 192.984 19.2313 192.328 19.5049C191.685 19.7655 191.121 20.1433 190.635 20.6384C190.162 21.1335 189.788 21.7329 189.513 22.4364C189.237 23.1269 189.099 23.9087 189.099 24.7816C189.099 24.977 189.106 25.1985 189.119 25.4461C189.145 25.6936 189.178 25.9477 189.217 26.2082C189.27 26.4558 189.329 26.6968 189.395 26.9313C189.46 27.1659 189.546 27.3743 189.651 27.5567L195.911 19.3095Z" fill="#444F60"/>
<path d="M38.5479 32.4142L35.8093 32.2544L35.9244 3.23077L42 4.10947L38.5479 32.4142ZM40.5731 38.8047C40.5731 39.3728 40.4427 39.8609 40.1819 40.2692C39.9364 40.6775 39.6296 41.0059 39.2614 41.2544C38.9085 41.5207 38.5326 41.7071 38.1337 41.8136C37.7348 41.9379 37.3896 42 37.0981 42C36.7759 42 36.4077 41.9379 35.9934 41.8136C35.5945 41.7071 35.2186 41.5207 34.8657 41.2544C34.5129 41.0059 34.2137 40.6775 33.9682 40.2692C33.7227 39.8609 33.6 39.3728 33.6 38.8047C33.6 38.2012 33.7227 37.6864 33.9682 37.2604C34.2137 36.8343 34.5129 36.4882 34.8657 36.2219C35.2186 35.9379 35.5945 35.7337 35.9934 35.6095C36.4077 35.4852 36.7759 35.4231 37.0981 35.4231C37.3896 35.4231 37.7348 35.4852 38.1337 35.6095C38.5326 35.7337 38.9085 35.9379 39.2614 36.2219C39.6296 36.4882 39.9364 36.8343 40.1819 37.2604C40.4427 37.6864 40.5731 38.2012 40.5731 38.8047Z" fill="#7F00FF"/>
<path d="M2.38689 15.6383L7.71147 15.2321L8.18885 3.57447L16.0105 1.99033L14.0643 14.6228L18.8013 14.2166L20.2702 0L29.5974 1.42166L26.6964 13.5667L33.6 12.8762L32.1679 19.619L25.1908 19.7002L23.8321 25.1838L30.2216 24.8588L28.6426 32.1702L22.1797 31.8453L19.6826 42L15.937 41.4313L16.9652 31.6015L11.4938 31.2766L9.91475 41.8375L6.83016 41.675L7.19738 31.0329L0 30.5861L0.367213 26.1992L7.34426 25.8743L7.56459 19.7814H2.01967L2.38689 15.6383ZM12.3751 25.7118L17.5895 25.4681L18.177 19.7002H13.2931L12.3751 25.7118Z" fill="#7F00FF"/>
</svg>
