<svg width="113" height="24" viewBox="0 0 113 24" fill="none" xmlns="http://www.w3.org/2000/svg">
<path d="M35.4658 19.5264H32.352V4.08226H35.4658V10.2642H41.6827V4.08226H44.7966V19.5264H41.6827V13.3552H35.4658V19.5264Z" fill="#CCCCCC"/>
<path d="M58.4565 19.5264H57.7404L56.5903 17.9432C56.3082 18.1945 56.008 18.4315 55.6898 18.654C55.3788 18.8694 55.0496 19.0597 54.7025 19.2248C54.3553 19.3828 53.9972 19.5085 53.6283 19.6018C53.2667 19.6951 52.8978 19.7418 52.5217 19.7418C51.7043 19.7418 50.934 19.6054 50.2107 19.3325C49.4946 19.0597 48.8653 18.6648 48.3228 18.1479C47.7875 17.6237 47.3644 16.9847 47.0534 16.2308C46.7423 15.4769 46.5868 14.6189 46.5868 13.6568C46.5868 12.7593 46.7423 11.9372 47.0534 11.1904C47.3644 10.4365 47.7875 9.79035 48.3228 9.25185C48.8653 8.71335 49.4946 8.29691 50.2107 8.00253C50.934 7.70097 51.7043 7.55019 52.5217 7.55019C52.8978 7.55019 53.2703 7.59686 53.6392 7.6902C54.0081 7.78354 54.3661 7.91278 54.7133 8.07792C55.0605 8.24306 55.3896 8.43692 55.7006 8.6595C56.0189 8.88208 56.3155 9.12261 56.5903 9.38109L57.7404 8.0133H58.4565V19.5264ZM55.4728 13.6568C55.4728 13.2547 55.3932 12.867 55.2341 12.4936C55.0822 12.1131 54.8724 11.7792 54.6048 11.492C54.3372 11.1976 54.0225 10.9643 53.6609 10.792C53.3065 10.6125 52.9267 10.5227 52.5217 10.5227C52.1166 10.5227 51.7332 10.5909 51.3716 10.7273C51.0172 10.8638 50.7061 11.0648 50.4385 11.3305C50.1781 11.5961 49.972 11.9264 49.8201 12.3213C49.6682 12.709 49.5922 13.1542 49.5922 13.6568C49.5922 14.1594 49.6682 14.6081 49.8201 15.003C49.972 15.3907 50.1781 15.7174 50.4385 15.9831C50.7061 16.2487 51.0172 16.4498 51.3716 16.5862C51.7332 16.7226 52.1166 16.7908 52.5217 16.7908C52.9267 16.7908 53.3065 16.7047 53.6609 16.5324C54.0225 16.3529 54.3372 16.1195 54.6048 15.8323C54.8724 15.5379 55.0822 15.2041 55.2341 14.8307C55.3932 14.4502 55.4728 14.0588 55.4728 13.6568Z" fill="#CCCCCC"/>
<path d="M67.1037 19.5264H60.3335V16.597H67.1037C67.3063 16.597 67.4798 16.5252 67.6245 16.3816C67.7692 16.238 67.8415 16.0657 67.8415 15.8646C67.8415 15.6564 67.7692 15.52 67.6245 15.4554C67.4798 15.3907 67.3063 15.3584 67.1037 15.3584H64.0224C63.5088 15.3584 63.0278 15.2615 62.5794 15.0676C62.1309 14.8738 61.7403 14.6117 61.4076 14.2814C61.0749 13.944 60.8109 13.5527 60.6156 13.1075C60.4275 12.6623 60.3335 12.1849 60.3335 11.6751C60.3335 11.1653 60.4275 10.6878 60.6156 10.2427C60.8109 9.79753 61.0749 9.40981 61.4076 9.07953C61.7403 8.74925 62.1309 8.49077 62.5794 8.30409C63.0278 8.11023 63.5088 8.0133 64.0224 8.0133H70.0223V10.9427H64.0224C63.8199 10.9427 63.6463 11.0145 63.5016 11.1581C63.3569 11.3017 63.2846 11.4741 63.2846 11.6751C63.2846 11.8833 63.3569 12.0628 63.5016 12.2136C63.6463 12.3572 63.8199 12.429 64.0224 12.429H67.1037C67.61 12.429 68.0874 12.5152 68.5359 12.6875C68.9843 12.8526 69.3749 13.086 69.7077 13.3875C70.0404 13.6891 70.3044 14.0517 70.4997 14.4753C70.695 14.8989 70.7926 15.362 70.7926 15.8646C70.7926 16.3744 70.695 16.8519 70.4997 17.297C70.3044 17.735 70.0404 18.1227 69.7077 18.4602C69.3749 18.7905 68.9843 19.0525 68.5359 19.2464C68.0874 19.4331 67.61 19.5264 67.1037 19.5264Z" fill="#CCCCCC"/>
<path d="M75.3387 19.5264H72.3767V3.40375H75.3387V8.49795C75.6931 8.23229 76.0584 8.04561 76.4345 7.93791C76.8106 7.82303 77.194 7.76559 77.5846 7.76559C78.3007 7.76559 78.9734 7.90201 79.6026 8.17485C80.2319 8.44051 80.778 8.81028 81.241 9.28416C81.7111 9.75086 82.08 10.3001 82.3476 10.932C82.6225 11.5566 82.7599 12.2244 82.7599 12.9352V19.5264H79.7762V12.9352H79.7979C79.7979 12.6336 79.7401 12.35 79.6243 12.0844C79.5086 11.8115 79.3495 11.5746 79.1469 11.3735C78.9444 11.1725 78.7093 11.0145 78.4417 10.8997C78.1741 10.7848 77.8884 10.7273 77.5846 10.7273C77.2736 10.7273 76.9806 10.7848 76.7058 10.8997C76.4309 11.0145 76.1922 11.1725 75.9897 11.3735C75.7871 11.5746 75.628 11.8115 75.5123 12.0844C75.3966 12.35 75.3387 12.6336 75.3387 12.9352V19.5264Z" fill="#CCCCCC"/>
<path d="M99.653 19.5264H96.7019V12.2028C96.7019 12.0018 96.6621 11.8115 96.5825 11.632C96.5102 11.4525 96.4053 11.2946 96.2679 11.1581C96.1304 11.0217 95.9713 10.9176 95.7905 10.8458C95.6096 10.7668 95.418 10.7273 95.2154 10.7273C95.0129 10.7273 94.8212 10.7668 94.6404 10.8458C94.4668 10.9176 94.3113 11.0217 94.1739 11.1581C94.0437 11.2946 93.9388 11.4525 93.8592 11.632C93.7869 11.8115 93.7507 12.0018 93.7507 12.2028V19.5264H90.7887V12.2028C90.7887 12.0018 90.749 11.8115 90.6694 11.632C90.5971 11.4525 90.4922 11.2946 90.3547 11.1581C90.2173 11.0217 90.0582 10.9176 89.8774 10.8458C89.6965 10.7668 89.5048 10.7273 89.3023 10.7273C89.0998 10.7273 88.9081 10.7668 88.7273 10.8458C88.5537 10.9176 88.3982 11.0217 88.2607 11.1581C88.1305 11.2946 88.0257 11.4525 87.9461 11.632C87.8738 11.8115 87.8376 12.0018 87.8376 12.2028V19.5264H84.8756V7.99176H85.5917L86.3946 8.8749C86.8069 8.53026 87.2589 8.2646 87.7508 8.07792C88.2499 7.88406 88.7671 7.78713 89.3023 7.78713C89.8448 7.78713 90.3728 7.88765 90.8864 8.08869C91.4072 8.28973 91.8629 8.63796 92.2535 9.13338C92.4343 8.88926 92.6404 8.68104 92.8719 8.50872C93.1034 8.3364 93.3457 8.19639 93.5988 8.08869C93.8592 7.98099 94.1268 7.9056 94.4017 7.86252C94.6766 7.81226 94.9478 7.78713 95.2154 7.78713C95.8303 7.78713 96.4053 7.90201 96.9405 8.13177C97.483 8.36153 97.9532 8.67745 98.351 9.07953C98.7561 9.47443 99.0743 9.94113 99.3058 10.4796C99.5373 11.0181 99.653 11.5925 99.653 12.2028V19.5264Z" fill="#CCCCCC"/>
<path d="M106.445 16.7047C106.561 16.7406 106.676 16.7657 106.792 16.7801C106.908 16.7872 107.024 16.7908 107.139 16.7908C107.429 16.7908 107.707 16.7513 107.975 16.6724C108.242 16.5934 108.492 16.4821 108.723 16.3385C108.962 16.1877 109.172 16.0082 109.353 15.8C109.541 15.5846 109.693 15.3477 109.808 15.0892L111.978 17.2539C111.703 17.6417 111.385 17.9899 111.024 18.2986C110.669 18.6074 110.282 18.8694 109.863 19.0848C109.45 19.3002 109.013 19.4618 108.55 19.5695C108.094 19.6844 107.624 19.7418 107.139 19.7418C106.322 19.7418 105.552 19.591 104.828 19.2895C104.112 18.9879 103.483 18.5679 102.94 18.0294C102.405 17.4909 101.982 16.8519 101.671 16.1123C101.36 15.3656 101.204 14.5471 101.204 13.6568C101.204 12.7449 101.36 11.912 101.671 11.1581C101.982 10.4042 102.405 9.76163 102.94 9.23031C103.483 8.69899 104.112 8.28614 104.828 7.99176C105.552 7.69738 106.322 7.55019 107.139 7.55019C107.624 7.55019 108.098 7.60763 108.561 7.72251C109.024 7.83739 109.461 8.00253 109.873 8.21793C110.293 8.43333 110.684 8.69899 111.045 9.01491C111.407 9.32365 111.725 9.67188 112 10.0596L106.445 16.7047ZM107.964 10.6412C107.826 10.5909 107.689 10.5586 107.552 10.5442C107.421 10.5299 107.284 10.5227 107.139 10.5227C106.734 10.5227 106.351 10.5981 105.989 10.7489C105.635 10.8925 105.324 11.1007 105.056 11.3735C104.796 11.6464 104.59 11.9767 104.438 12.3644C104.286 12.7449 104.21 13.1757 104.21 13.6568C104.21 13.7645 104.214 13.8865 104.221 14.0229C104.235 14.1594 104.253 14.2994 104.275 14.443C104.304 14.5794 104.336 14.7122 104.373 14.8415C104.409 14.9707 104.456 15.0856 104.514 15.1861L107.964 10.6412Z" fill="#CCCCCC"/>
<path d="M21.2432 17.863L19.734 17.775L19.7974 1.78043L23.1456 2.26467L21.2432 17.863ZM22.3593 21.3847C22.3593 21.6978 22.2874 21.9668 22.1437 22.1918C22.0084 22.4168 21.8393 22.5978 21.6364 22.7347C21.4419 22.8815 21.2348 22.9842 21.0149 23.0429C20.7951 23.1113 20.6049 23.1456 20.4442 23.1456C20.2667 23.1456 20.0637 23.1113 19.8355 23.0429C19.6156 22.9842 19.4085 22.8815 19.214 22.7347C19.0195 22.5978 18.8547 22.4168 18.7194 22.1918C18.5841 21.9668 18.5165 21.6978 18.5165 21.3847C18.5165 21.0521 18.5841 20.7684 18.7194 20.5336C18.8547 20.2989 19.0195 20.1081 19.214 19.9614C19.4085 19.8048 19.6156 19.6923 19.8355 19.6239C20.0637 19.5554 20.2667 19.5211 20.4442 19.5211C20.6049 19.5211 20.7951 19.5554 21.0149 19.6239C21.2348 19.6923 21.4419 19.8048 21.6364 19.9614C21.8393 20.1081 22.0084 20.2989 22.1437 20.5336C22.2874 20.7684 22.3593 21.0521 22.3593 21.3847Z" fill="#CCCCCC"/>
<path d="M1.31538 8.61804L4.24968 8.39419L4.51276 1.96984L8.82315 1.09684L7.75061 8.05843L10.3611 7.83458L11.1706 0L16.3107 0.783458L14.712 7.47643L18.5165 7.09589L17.7272 10.8117L13.8823 10.8565L13.1335 13.8784L16.6547 13.6993L15.7845 17.7285L12.2229 17.5495L10.8468 23.1456L8.78268 22.8322L9.3493 17.4152L6.33405 17.2361L5.46388 23.0561L3.764 22.9665L3.96637 17.1018L0 16.8555L0.202366 14.438L4.04732 14.2589L4.16874 10.9013H1.11301L1.31538 8.61804ZM6.81973 14.1694L9.69332 14.0351L10.0171 10.8565H7.32564L6.81973 14.1694Z" fill="#CCCCCC"/>
</svg>
