<svg width="590" height="425" viewBox="0 0 590 425" fill="none" xmlns="http://www.w3.org/2000/svg">
<g clip-path="url(#clip0)">
<path d="M242.721 419.247C343.481 419.247 425.163 337.565 425.163 236.805C425.163 136.046 343.481 54.3641 242.721 54.3641C141.962 54.3641 60.2803 136.046 60.2803 236.805C60.2803 337.565 141.962 419.247 242.721 419.247Z" fill="#F2F2F2"/>
<path d="M487.957 102.466L468.924 125.032C467.897 134.752 466.44 145.613 464.376 157.007L495.647 124.655L495.794 125.22C494.014 116.526 491.323 108.639 487.783 101.931L487.957 102.466Z" fill="#039BE5"/>
<path d="M469.101 123.327L487.538 101.468C483.514 93.9866 478.418 88.0107 472.328 84.0891C472.011 83.8851 471.692 83.6927 471.373 83.5016C471.378 86.1589 471.3 101.756 469.101 123.327Z" fill="#039BE5"/>
<path d="M492.718 193.285L492.758 193.94C493.824 189.928 494.736 185.912 495.493 181.891L450.144 211.171L450.114 210.872C449.256 213.208 448.375 215.5 447.469 217.749L492.718 193.285Z" fill="#039BE5"/>
<path d="M498.122 157.708L498.214 158.328C498.733 147.441 497.96 136.532 495.913 125.827L464.045 158.795C462.062 169.465 459.726 179.621 457.039 189.262L498.122 157.708Z" fill="#039BE5"/>
<path d="M417.717 102.548C413.006 108.717 408.929 115.347 405.55 122.336L458.074 182.293C460.236 173.883 461.98 165.728 463.383 158.123L417.441 103.142L417.717 102.548Z" fill="#039BE5"/>
<path d="M401.84 130.568L402.107 129.967L456.044 189.81C456.624 187.761 457.18 185.723 457.71 183.696L404.993 123.518L405.264 122.92C404.071 125.382 402.93 127.931 401.84 130.568Z" fill="#039BE5"/>
<path d="M495.574 180.476L495.638 181.117C496.982 173.824 497.832 166.45 498.183 159.043L456.544 191.024C454.716 197.442 452.735 203.605 450.602 209.512L495.574 180.476Z" fill="#039BE5"/>
<path d="M435.47 242.68C428.414 254.962 420.418 265.344 411.562 273.705C421.357 269.754 460.82 252.349 481.272 220.961L435.47 242.68Z" fill="#039BE5"/>
<path d="M393.635 161.029C392.853 168.109 392.546 175.234 392.717 182.356L393.046 181.717L435.348 241.06C439.232 234.15 442.699 227.013 445.729 219.688L393.635 161.029Z" fill="#039BE5"/>
<path d="M468.322 123.26C470.695 99.9212 470.568 83.6582 470.565 83.4249L470.969 83.2612C461.445 77.7403 450.921 77.9326 440.67 82.8394L468.322 123.26Z" fill="#039BE5"/>
<path d="M446.758 219.485C446.472 220.18 446.188 220.88 445.897 221.566C443.123 228.155 439.991 234.588 436.516 240.837L481.884 219.323L481.907 219.966C485.462 214.41 488.298 208.426 490.348 202.157C491.143 199.69 491.875 197.214 492.546 194.73L446.758 219.485Z" fill="#039BE5"/>
<path d="M463.659 156.605C465.692 145.339 467.128 134.606 468.141 124.999L439.856 83.6503L440.154 83.0858C432.451 86.8952 424.917 93.3666 418.092 102.071L463.659 156.605Z" fill="#039BE5"/>
<path d="M434.726 242.154L392.733 183.246C393.745 225.947 408.325 271.52 409.266 274.418C419.35 265.387 427.743 254.284 434.726 242.154Z" fill="#039BE5"/>
<path d="M446.216 218.426L446.259 218.403C449.877 209.503 453.012 200.415 455.652 191.178L401.582 131.187C400.121 134.767 398.764 138.495 397.511 142.373C395.766 147.936 394.532 153.646 393.824 159.432L446.216 218.426Z" fill="#039BE5"/>
<path d="M530.745 277.783L501.693 283.024C494.703 289.855 486.653 297.291 477.796 304.75L522.515 299.778L522.268 300.307C526.442 292.476 529.4 284.684 530.952 277.26L530.745 277.783Z" fill="#039BE5"/>
<path d="M502.917 281.824L531.059 276.747C532.731 268.419 532.618 260.566 530.429 253.662C530.315 253.302 530.192 252.951 530.068 252.6C528.377 254.649 518.369 266.612 502.917 281.824Z" fill="#039BE5"/>
<path d="M476.486 350.768L476.099 351.297C479.479 348.888 482.743 346.377 485.891 343.762L432.288 337.389L432.456 337.14C430.305 338.392 428.164 339.595 426.033 340.749L476.486 350.768Z" fill="#039BE5"/>
<path d="M503.34 326.814L503.015 327.35C510.358 319.296 516.722 310.401 521.973 300.85L476.401 305.916C468.067 312.869 459.791 319.201 451.572 324.913L503.34 326.814Z" fill="#039BE5"/>
<path d="M476.595 233.047C469.031 234.793 461.663 237.299 454.603 240.527L456.814 320.205C463.844 315.107 470.388 309.939 476.319 304.977L476.003 233.328L476.595 233.047Z" fill="#039BE5"/>
<path d="M446.494 244.501L447.083 244.208L450.456 324.701C452.21 323.493 453.938 322.277 455.639 321.054L453.419 241.082L454.01 240.794C451.521 241.929 449.016 243.165 446.494 244.501Z" fill="#039BE5"/>
<path d="M486.855 342.724L486.496 343.258C492.182 338.499 497.541 333.362 502.535 327.881L450.068 325.954C444.566 329.732 439.109 333.215 433.699 336.404L486.855 342.724Z" fill="#039BE5"/>
<path d="M400.89 352.298C387.621 357.257 374.841 360.153 362.687 360.944C372.752 364.149 414.247 375.914 450.019 364.784L400.89 352.298Z" fill="#039BE5"/>
<path d="M420.746 262.728C415.628 267.682 410.848 272.974 406.437 278.568L407.098 278.286L401.829 350.972C409.228 348.128 416.449 344.842 423.455 341.133L420.746 262.728Z" fill="#039BE5"/>
<path d="M502.359 281.275C519.073 264.813 529.348 252.207 529.495 252.026L529.91 252.157C526.096 241.83 517.868 235.266 506.843 232.507L502.359 281.275Z" fill="#039BE5"/>
<path d="M424.377 341.633C423.714 341.986 423.049 342.344 422.387 342.687C416.047 345.992 409.532 348.949 402.871 351.546L451.534 363.913L451.142 364.422C457.423 362.41 463.424 359.61 469.002 356.09C471.187 354.697 473.331 353.257 475.433 351.771L424.377 341.633Z" fill="#039BE5"/>
<path d="M477.5 303.984C486.252 296.603 494.204 289.252 501.111 282.499L505.699 232.612L506.289 232.368C497.926 230.389 487.996 230.567 477.187 232.918L477.5 303.984Z" fill="#039BE5"/>
<path d="M400.652 351.418L405.882 279.264C379.426 312.798 361.588 357.196 360.464 360.028C373.991 359.505 387.537 356.306 400.652 351.418Z" fill="#039BE5"/>
<path d="M424.635 340.472L424.683 340.482C433.146 335.934 441.358 330.935 449.282 325.504L445.901 244.813C442.493 246.638 439.07 248.645 435.631 250.832C430.739 254.003 426.147 257.614 421.911 261.619L424.635 340.472Z" fill="#039BE5"/>
<path d="M379.857 180.639L368.73 207.984C370.758 217.545 372.73 228.324 374.289 239.798L394.029 199.365L394.343 199.857C389.963 192.139 384.965 185.469 379.525 180.184L379.857 180.639Z" fill="#039BE5"/>
<path d="M368.372 206.307L379.15 179.819C373.01 173.948 366.316 169.84 359.313 167.993C358.948 167.897 358.586 167.813 358.223 167.73C359.049 170.255 363.795 185.112 368.372 206.307Z" fill="#039BE5"/>
<path d="M412.456 265.539L412.696 266.15C412.471 262.005 412.097 257.904 411.574 253.845L377.496 295.709L377.375 295.434C377.281 297.92 377.151 300.373 376.985 302.791L412.456 265.539Z" fill="#039BE5"/>
<path d="M406.599 230.034L406.878 230.595C404.006 220.082 399.9 209.945 394.643 200.397L374.527 241.601C375.939 252.362 376.857 262.742 377.281 272.742L406.599 230.034Z" fill="#039BE5"/>
<path d="M313.082 202.428C310.508 209.752 308.68 217.317 307.627 225.008L376.111 265.794C375.568 257.128 374.705 248.833 373.689 241.167L313.002 203.078L313.082 202.428Z" fill="#039BE5"/>
<path d="M306.643 233.984L306.711 233.33L376.504 273.571C376.423 271.443 376.321 269.333 376.199 267.241L307.462 226.305L307.535 225.652C307.162 228.362 306.864 231.139 306.643 233.984Z" fill="#039BE5"/>
<path d="M411.213 252.475L411.472 253.064C410.496 245.714 409.025 238.437 407.07 231.285L377.355 274.57C377.6 281.239 377.621 287.713 377.419 293.99L411.213 252.475Z" fill="#039BE5"/>
<path d="M373.28 330.211C370.365 344.072 365.97 356.418 360.132 367.106C368.227 360.321 400.377 331.571 410.126 295.398L373.28 330.211Z" fill="#039BE5"/>
<path d="M308.255 265.489C309.7 272.465 311.61 279.335 313.974 286.055L314.089 285.346L372.663 328.708C374.221 320.936 375.312 313.077 375.929 305.174L308.255 265.489Z" fill="#039BE5"/>
<path d="M367.61 206.485C362.653 183.555 357.505 168.128 357.431 167.906L357.764 167.626C347 165.319 337.051 168.755 328.819 176.59L367.61 206.485Z" fill="#039BE5"/>
<path d="M376.845 304.662C376.788 305.412 376.734 306.165 376.67 306.908C376.068 314.032 375.078 321.118 373.705 328.134L410.201 293.651L410.422 294.256C412.085 287.873 412.933 281.305 412.945 274.71C412.938 272.118 412.87 269.537 412.74 266.966L376.845 304.662Z" fill="#039BE5"/>
<path d="M373.483 239.638C371.934 228.295 369.982 217.643 367.976 208.194L328.295 177.613L328.404 176.984C322.256 182.988 317.091 191.471 313.29 201.859L373.483 239.638Z" fill="#039BE5"/>
<path d="M372.409 329.941L314.265 286.897C328.426 327.194 356.378 366.029 358.168 368.494C364.968 356.788 369.517 343.635 372.409 329.941Z" fill="#039BE5"/>
<path d="M376.003 303.823L376.036 303.788C376.726 294.206 376.899 284.593 376.554 274.993L306.589 234.652C306.306 238.508 306.168 242.474 306.175 246.549C306.235 252.378 306.826 258.19 307.941 263.912L376.003 303.823Z" fill="#039BE5"/>
<path d="M295 424.048C457.924 424.048 590 416.405 590 406.977C590 397.549 457.924 389.906 295 389.906C132.076 389.906 0 397.549 0 406.977C0 416.405 132.076 424.048 295 424.048Z" fill="#3F3D56"/>
<path opacity="0.1" d="M397.423 385.231C397.423 418.409 351.177 408.146 294.554 408.146C237.931 408.146 192.373 418.409 192.373 385.231C192.373 352.053 238.612 344.838 295.235 344.838C351.858 344.838 397.423 352.053 397.423 385.231Z" fill="black"/>
<path d="M397.423 377.062C397.423 410.24 351.177 399.978 294.554 399.978C237.931 399.978 192.373 410.24 192.373 377.062C192.373 343.884 238.612 336.669 295.235 336.669C351.858 336.669 397.423 343.884 397.423 377.062Z" fill="#3F3D56"/>
<path d="M408.612 238.773C408.612 238.773 408.612 294.46 411.587 306.787C414.563 319.115 425.19 363.749 425.19 363.749L439.643 360.774C439.643 360.774 437.093 301.686 434.542 293.184C431.992 284.683 437.518 249.825 444.744 242.174C451.971 234.522 441.344 229.846 441.344 229.846L408.612 238.773Z" fill="#2F2E41"/>
<path opacity="0.1" d="M408.612 238.773C408.612 238.773 408.612 294.46 411.587 306.787C414.563 319.115 425.19 363.749 425.19 363.749L439.643 360.774C439.643 360.774 437.093 301.686 434.542 293.184C431.992 284.683 437.518 249.825 444.744 242.174C451.971 234.522 441.344 229.846 441.344 229.846L408.612 238.773Z" fill="black"/>
<path d="M443.469 353.122C443.469 353.122 424.34 360.774 423.065 360.774C421.789 360.774 420.939 382.878 420.939 382.878C420.939 382.878 422.215 396.056 401.385 400.307C380.556 404.558 417.964 413.91 424.765 409.234C431.567 404.558 434.542 401.157 434.542 401.157L437.093 396.906L436.243 404.133L439.218 404.558L446.02 390.955C446.02 390.955 447.72 380.753 445.595 378.202C443.469 375.652 443.469 353.122 443.469 353.122Z" fill="#2F2E41"/>
<path d="M347.399 273.205L350.374 289.784L364.402 288.508L361.852 276.606L347.399 273.205Z" fill="#A0616A"/>
<path d="M416.263 203.065L413.713 207.316C413.713 207.316 340.172 197.114 340.172 224.32C340.172 251.526 336.772 267.679 335.921 268.954C335.071 270.229 358.026 283.832 363.127 282.982C363.127 282.982 366.528 278.306 366.103 272.355C365.678 266.404 369.503 244.299 366.103 243.024C366.103 243.024 370.354 241.323 369.929 238.773C369.929 238.773 429.866 247.275 437.518 245.574C445.17 243.874 450.271 238.348 451.546 234.947C452.821 231.546 455.553 218.281 455.553 218.281L454.947 195.839L448.145 187.762L437.943 186.487L422.215 196.264L416.263 203.065Z" fill="#2F2E41"/>
<path d="M461.748 243.449C461.748 243.449 455.797 257.052 462.598 257.052C469.4 257.052 471.95 245.149 471.95 245.149L461.748 243.449Z" fill="#A0616A"/>
<path d="M416.263 133.35L414.138 130.8C414.138 130.8 390.333 77.2385 399.685 62.7854C409.037 48.3323 449.845 46.2069 451.121 47.057C452.396 47.9072 456.222 50.8829 455.797 51.733C455.372 52.5832 446.87 54.7086 449.845 59.8098C449.845 59.8098 445.595 61.085 444.744 59.3847C443.894 57.6843 441.344 57.2592 440.493 58.9596C439.643 60.6599 426.04 64.4858 426.04 65.761C426.04 67.0363 423.915 73.4126 421.79 74.2628C419.664 75.113 422.215 87.8657 426.466 91.2664C430.716 94.6672 433.692 104.019 433.692 104.019L431.567 123.148L416.263 133.35Z" fill="#D0CDE1"/>
<path d="M428.429 61.8193C425.886 63.1138 423.357 64.767 421.824 67.372C418.685 72.7035 420.69 79.9972 418.746 85.9942C417.917 88.5513 416.406 90.7488 415.16 93.0862C413.914 95.4236 412.897 98.0959 413.223 100.79C413.544 103.434 415.099 105.676 415.833 108.214C417.097 112.582 415.831 117.319 414.403 121.624C413.622 123.982 412.791 126.318 411.91 128.632C411.399 129.975 410.785 131.414 409.613 132.061L419.672 132.886C422.596 133.126 425.827 133.267 428.125 131.238C429.06 130.346 429.808 129.276 430.326 128.092C432.597 123.35 432.964 117.758 432.703 112.39C432.442 107.023 431.603 101.69 431.649 96.3146C431.6 94.5498 431.838 92.789 432.354 91.1004C432.89 89.7814 433.522 88.5031 434.243 87.2755C436.536 82.8544 437.483 77.7507 438.397 72.7467C439.024 69.3152 440.025 64.3446 438.231 61.1204C436.443 57.906 430.847 60.5882 428.429 61.8193Z" fill="#2F2E41"/>
<path d="M438.368 99.3431C447.994 99.3431 455.797 91.54 455.797 81.9144C455.797 72.2888 447.994 64.4857 438.368 64.4857C428.742 64.4857 420.939 72.2888 420.939 81.9144C420.939 91.54 428.742 99.3431 438.368 99.3431Z" fill="#A0616A"/>
<path d="M431.567 96.7926C431.567 96.7926 434.33 107.632 432.629 113.159C430.929 118.685 455.797 105.72 455.797 105.72C455.797 105.72 448.145 95.5174 448.145 92.1166L431.567 96.7926Z" fill="#A0616A"/>
<path d="M463.448 113.371C463.448 113.371 457.922 109.12 457.922 106.995C457.922 104.869 454.096 100.193 454.096 100.193C454.096 100.193 435.818 109.545 434.967 109.545C434.117 109.545 433.692 104.019 433.692 104.019L414.138 130.8C414.138 130.8 407.762 146.103 409.887 158.006C412.012 169.908 415.413 182.236 413.713 193.288C412.012 204.34 414.138 208.166 416.688 206.891C419.239 205.616 416.688 201.365 422.215 201.79C427.741 202.215 446.445 196.264 447.72 193.713C448.995 191.163 454.096 199.239 454.522 203.915C454.947 208.591 453.671 221.344 454.522 220.919C455.372 220.494 456.647 213.267 457.072 209.867C457.497 206.466 458.772 195.414 457.072 193.713C455.372 192.013 456.647 189.462 457.922 188.612C459.198 187.762 480.027 135.051 480.027 135.051C480.027 135.051 477.901 123.998 470.675 120.173C463.448 116.347 463.448 113.371 463.448 113.371Z" fill="#D0CDE1"/>
<path d="M473.225 127.824L480.027 135.051V173.309C480.027 173.309 488.954 219.219 483.428 221.769C477.901 224.32 475.351 223.47 475.351 223.47C475.351 223.47 476.626 246.85 472.8 246.85C468.975 246.85 463.023 245.149 459.623 245.999C459.623 245.999 460.473 237.498 463.023 233.672C465.574 229.846 465.574 223.044 465.574 223.044C465.574 223.044 461.748 223.044 461.748 217.518C461.748 211.992 461.323 208.591 460.898 207.316C460.473 206.041 457.497 183.511 457.497 183.511L473.225 127.824Z" fill="#D0CDE1"/>
<path d="M434.647 60.9385C437.59 59.0685 441.491 60.484 444.909 59.7947C448.624 59.0455 451.72 55.8056 455.505 55.99C458.653 56.1434 461.14 58.6262 463.179 61.0303C465.084 63.1593 466.726 65.5103 468.069 68.0322C469.465 70.8349 470.225 73.9038 470.974 76.9441L473.488 87.1426C474.34 90.5997 475.203 94.0858 476.75 97.2925C478.298 100.499 480.603 103.447 483.732 105.146C479.905 106.301 475.823 106.314 471.988 105.183C473.461 109.03 475.895 112.434 479.059 115.071C476.223 115.936 473.168 115.064 470.21 115.252C468.088 115.411 466.041 116.106 464.261 117.273C462.481 118.439 461.026 120.039 460.034 121.922C458.489 124.935 458.252 128.426 457.329 131.684C454.575 141.408 444.989 148.761 434.883 148.9C437.717 144.816 440.691 140.076 439.594 135.228C438.93 132.298 436.84 129.838 436.221 126.898C435.558 123.756 436.653 120.551 437.398 117.427C438.142 114.303 438.45 110.716 436.514 108.155C434.461 105.439 430.341 104.542 429.017 101.405C428.613 100.242 428.436 99.0128 428.495 97.7833L428.411 92.1931C428.335 91.0213 428.434 89.8447 428.705 88.7022C429.141 87.2044 430.144 85.9492 431.101 84.7171C432.918 82.3761 434.686 79.8861 435.39 77.0074C436.246 73.5118 434.918 71.3432 433.215 68.5136C431.743 66.0662 432.092 62.5626 434.647 60.9385Z" fill="#2F2E41"/>
<path d="M453.246 50.0327C453.246 50.0327 472.8 67.0363 467.699 72.9876C462.598 78.9389 454.521 61.9353 454.521 61.9353L446.02 55.5589L453.246 50.0327Z" fill="#A0616A"/>
<path d="M371.629 278.306C371.629 278.306 349.099 283.832 346.549 288.508C346.549 288.508 343.573 302.961 343.573 308.913C343.573 314.864 342.298 325.916 330.395 328.042C318.493 330.167 309.991 333.993 326.144 336.969C342.298 339.944 346.974 340.794 351.65 334.418C356.326 328.042 358.876 326.341 358.876 326.341L362.277 334.843H364.402L372.479 317.414C372.479 317.414 373.329 308.913 371.204 303.812C369.078 298.711 371.629 278.306 371.629 278.306Z" fill="#2F2E41"/>
<path d="M455.584 51.5205C455.584 51.5205 454.934 58.3219 445.695 59.5972L443.682 53.2208L450.058 47.6946L455.584 51.5205Z" fill="#D0CDE1"/>
<path d="M228.588 312.924C253.925 312.924 274.465 292.384 274.465 267.047C274.465 241.709 253.925 221.17 228.588 221.17C203.251 221.17 182.711 241.709 182.711 267.047C182.711 292.384 203.251 312.924 228.588 312.924Z" fill="#039BE5"/>
<path d="M205.254 198.914H205.254C196.772 201.759 187.533 201.342 179.343 197.742C171.152 194.142 164.597 187.618 160.958 179.445L111.23 67.7648C108.5 61.6348 107.082 55.0022 107.066 48.2921C107.049 41.582 108.436 34.9425 111.136 28.7995C113.835 22.6565 117.789 17.1456 122.744 12.62C127.698 8.09446 133.543 4.65422 139.905 2.5199L139.905 2.51987C146.299 0.374779 153.072 -0.403472 159.785 0.235514C166.499 0.8745 173.004 2.91647 178.878 6.2292C184.752 9.54192 189.865 14.0515 193.886 19.466C197.906 24.8804 200.745 31.0789 202.217 37.6602L228.913 156.961C230.855 165.642 229.512 174.734 225.142 182.482C220.773 190.23 213.687 196.084 205.254 198.914V198.914Z" fill="#039BE5"/>
<path opacity="0.1" d="M228.588 312.924C253.925 312.924 274.465 292.384 274.465 267.047C274.465 241.709 253.925 221.17 228.588 221.17C203.251 221.17 182.711 241.709 182.711 267.047C182.711 292.384 203.251 312.924 228.588 312.924Z" fill="black"/>
<path opacity="0.1" d="M205.254 198.914H205.254C196.772 201.759 187.533 201.342 179.343 197.742C171.152 194.142 164.597 187.618 160.958 179.445L111.23 67.7648C108.5 61.6348 107.082 55.0022 107.066 48.2921C107.049 41.582 108.436 34.9425 111.136 28.7995C113.835 22.6565 117.789 17.1456 122.744 12.62C127.698 8.09446 133.543 4.65422 139.905 2.5199L139.905 2.51987C146.299 0.374779 153.072 -0.403472 159.785 0.235514C166.499 0.8745 173.004 2.91647 178.878 6.2292C184.752 9.54192 189.865 14.0515 193.886 19.466C197.906 24.8804 200.745 31.0789 202.217 37.6602L228.913 156.961C230.855 165.642 229.512 174.734 225.142 182.482C220.773 190.23 213.687 196.084 205.254 198.914V198.914Z" fill="black"/>
<path d="M226.891 298.797C247.22 298.797 263.699 282.318 263.699 261.989C263.699 241.66 247.22 225.181 226.891 225.181C206.562 225.181 190.083 241.66 190.083 261.989C190.083 282.318 206.562 298.797 226.891 298.797Z" fill="#039BE5"/>
<path d="M200.883 185.751H200.883C193.1 188.362 184.623 187.978 177.108 184.675C169.593 181.372 163.579 175.387 160.239 167.888L114.613 65.4182C112.108 59.7939 110.807 53.7082 110.792 47.5515C110.777 41.3949 112.049 35.303 114.526 29.6667C117.004 24.0303 120.631 18.9738 125.177 14.8215C129.723 10.6692 135.086 7.5127 140.923 5.55441L140.923 5.55438C146.79 3.58621 153.004 2.87214 159.164 3.45843C165.324 4.04472 171.292 5.91828 176.682 8.95779C182.072 11.9973 186.763 16.135 190.452 21.1029C194.141 26.0707 196.745 31.7581 198.096 37.7965L222.59 147.258C224.372 155.223 223.14 163.565 219.131 170.674C215.122 177.783 208.62 183.155 200.883 185.751V185.751Z" fill="#039BE5"/>
</g>
<defs>
<clipPath id="clip0">
<rect width="590" height="424.048" fill="white"/>
</clipPath>
</defs>
</svg>
